# xmcd CD database file
#
# Track frame offsets:
#	150
#	15335
#	29174
#
# Disc length: 645 seconds
#
# Revision: 1
# Processed by: cddbd v1.5.2PL0 Copyright (c) Steve Scherf et al.
# Submitted via: CDex 1.79
#
DISCID=1b028303
DTITLE=Kevin Lyttle - Last Drop
DYEAR=2004
DGENRE=R&B
TTITLE0=Last Drop (Album Version)  feat. Spragga Benz
TTITLE1=Last Drop (Radio Mix)
TTITLE2=Last Drop (Club Mix - Main)  feat. Spragga Benz
EXTD=YEAR: 2004
EXTT0=
EXTT1=
EXTT2=
PLAYORDER=
